<svg version="1.1" id="Layer_1" xmlns="http://www.w3.org/2000/svg" xmlns:xlink="http://www.w3.org/1999/xlink" x="0px" y="0px"
	 viewBox="0 0 512 512" style="enable-background:new 0 0 512 512;" xml:space="preserve">
<style type="text/css">
	.st0{fill:#787878;}
	.st1{fill:#FFFFFF;}
</style>
<path class="st0" d="M465.5,480h-417c-9.1,0-16.5-7.4-16.5-16.5v-417C32,37.4,39.4,30,48.5,30h417c9.1,0,16.5,7.4,16.5,16.5v417
	C482,472.6,474.6,480,465.5,480z"/>
<path class="st1" d="M157.5,130.1h126.8c23.4,0,42.2,5.3,56.3,16.1c14.1,10.7,21.2,26.9,21.2,48.6c0,13.1-3.2,24.4-9.6,33.8
	c-6.4,9.3-15.6,16.7-27.6,21.8v0.7c16.1,3.4,28.3,11,36.5,22.8c8.3,11.8,12.4,26.6,12.4,44.4c0,10.2-1.8,19.8-5.5,28.6
	c-3.7,8.9-9.4,16.6-17.2,23c-7.8,6.4-17.7,11.6-30,15.3c-12.2,3.8-26.7,5.7-43.5,5.7H157.5V130.1z M203.1,239.3h74.5
	c11,0,20.1-3.1,27.4-9.4s11-15.2,11-26.9c0-13.1-3.3-22.4-9.9-27.8c-6.6-5.3-16.1-8-28.5-8h-74.5V239.3z M203.1,353.6h80.7
	c13.9,0,24.7-3.6,32.3-10.8c7.7-7.2,11.5-17.4,11.5-30.5c0-12.9-3.8-22.8-11.5-29.8c-7.7-7-18.4-10.4-32.3-10.4h-80.7V353.6z"/>
</svg>
