<?xml version="1.0" encoding="utf-8"?>
<!-- Generator: Adobe Illustrator 23.0.1, SVG Export Plug-In . SVG Version: 6.00 Build 0)  -->
<svg version="1.1" id="Layer_1" xmlns="http://www.w3.org/2000/svg" xmlns:xlink="http://www.w3.org/1999/xlink" x="0px" y="0px"
	 viewBox="0 0 420 499" style="enable-background:new 0 0 420 499;" xml:space="preserve">
<style type="text/css">
	.st0{fill:#8D8D8D;}
	.st1{fill:#787878;}
	.st2{fill:#828282;}
	.st3{fill:#FFFFFF;}
</style>
<path class="st0" d="M380.1,172.6c0-6.2-1.4-11.8-4.1-16.6c-2.6-4.7-6.6-8.6-12-11.7c-44.3-25.6-88.6-51-132.8-76.6
	c-11.9-6.9-23.5-6.6-35.4,0.3C178.2,78.5,90,129,63.8,144.2C53,150.4,47.7,160,47.7,172.5c0,51.3,0,102.6,0,154
	c0,6.2,1.3,11.6,3.8,16.2c2.6,4.8,6.7,8.9,12.2,12c26.2,15.2,114.5,65.7,132.1,76.1c11.8,7,23.4,7.2,35.4,0.3
	c44.3-25.5,88.5-51,132.8-76.5c5.5-3.2,9.5-7.2,12.2-12c2.6-4.7,3.8-10.2,3.8-16.3C380.1,326.6,380.1,224,380.1,172.6"/>
<path class="st1" d="M214.4,249.1L51.6,342.8c2.6,4.8,6.7,8.9,12.2,12C90.1,370,178.4,420.5,196,430.9c11.8,7,23.4,7.2,35.4,0.3
	c44.3-25.5,88.5-51,132.8-76.5c5.5-3.2,9.5-7.2,12.2-12L214.4,249.1"/>
<path class="st1" d="M166.2,276.9c9.4,16.6,27.3,27.7,47.7,27.7c20.6,0,38.5-11.3,47.9-28l-47.4-27.4L166.2,276.9"/>
<path class="st2" d="M380.1,172.6c0-6.2-1.4-11.8-4.1-16.6l-161.6,93.1l161.9,93.7c2.6-4.7,3.8-10.2,3.8-16.3
	C380.1,326.6,380.1,224,380.1,172.6"/>
<path class="st3" d="M371.2,255.8h-12.6v12.6H346v-12.6h-12.6v-12.6H346v-12.6h12.6v12.6h12.6V255.8 M325.1,255.8h-12.6v12.6h-12.6
	v-12.6h-12.6v-12.6h12.6v-12.6h12.6v12.6h12.6V255.8"/>
<path class="st3" d="M261.9,276.5c-9.4,16.7-27.4,28-47.9,28c-20.4,0-38.2-11.2-47.7-27.7c-4.8-8.3-7.3-17.7-7.3-27.3
	c0-30.3,24.6-55,55-55c20.3,0,38,11,47.5,27.4l48-27.7c-19.1-33-54.7-55.1-95.5-55.1c-61,0-110.3,49.5-110.3,110.3
	c0,20,5.3,38.7,14.6,54.9c19,33.1,54.8,55.5,95.8,55.5c41.1,0,76.8-22.4,95.9-55.6L261.9,276.5"/>
</svg>
