<svg version="1.1" id="Layer_1" xmlns="http://www.w3.org/2000/svg" xmlns:xlink="http://www.w3.org/1999/xlink" x="0px" y="0px"
	 viewBox="0 0 512 512" style="enable-background:new 0 0 512 512;" xml:space="preserve">
<style type="text/css">
	.st0{fill:#FFFFFF;}
</style>
<g>
	<path class="st0" d="M466.3,40c3.2,0,5.7,2.6,5.7,5.7v418.6c0,3.2-2.6,5.7-5.7,5.7H47.7c-3.2,0-5.7-2.6-5.7-5.7V45.7
		c0-3.2,2.6-5.7,5.7-5.7H466.3 M466.3,30H47.7C39,30,32,37,32,45.7v418.6c0,8.7,7,15.7,15.7,15.7h418.6c8.7,0,15.7-7,15.7-15.7V45.7
		C482,37,475,30,466.3,30L466.3,30z"/>
</g>
<g>
	<g>
		<path class="st0" d="M175.5,277.4L154.6,341h-27.1l68.8-202.2h31.4L296.8,341h-27.9l-21.7-63.6H175.5z M241.9,257l-20-58.2
			c-4.4-13.2-7.4-25.3-10.4-36.9h-0.7c-2.9,11.8-6.1,24.2-10,36.5L180.8,257H241.9z"/>
	</g>
</g>
<g>
	<g>
		<path class="st0" d="M335.4,154.9c0,9-6.3,16.4-16.8,16.4c-9.5,0-16-7.4-15.9-16.4c0-9.1,6.7-16.4,16.4-16.4
			C329,138.5,335.4,145.7,335.4,154.9z M305.9,341V195.9h26.3V341H305.9z"/>
	</g>
</g>
</svg>
