<?xml version="1.0" encoding="utf-8"?>
<!-- Generator: Adobe Illustrator 23.0.1, SVG Export Plug-In . SVG Version: 6.00 Build 0)  -->
<svg version="1.1" id="Layer_1" xmlns="http://www.w3.org/2000/svg" xmlns:xlink="http://www.w3.org/1999/xlink" x="0px" y="0px"
	 viewBox="0 0 420 499" style="enable-background:new 0 0 420 499;" xml:space="preserve">
<style type="text/css">
	.st0{fill:#787878;}
	.st1{fill:#8D8D8D;}
	.st2{fill:#FFFFFF;}
	.st3{fill:#FFFFFF;stroke:#FFFFFF;stroke-miterlimit:10;}
</style>
<g>
	<polygon class="st0" points="210,486 5.2,367.7 5.2,131.3 210,13 	"/>
	<polygon class="st1" points="209.7,13 414.7,131.3 414.7,367.8 209.7,486 	"/>
</g>
<g>
	<path class="st2" d="M141.4,120.9c-2.7,2.3-6.3,5.9-9.8,10.9c-17.5,24.9-10.9,55.8-9.2,63.5c7.4,34.4,34.2,61.7,64.5,73.9
		c8.9,3.6,40.4,14.9,73.7,2.1c5.3-2,25.3-9.7,39-28.3c3.7-5,10.2-15.3,9.4-15.9c-0.5-0.4-3.3,2.6-4,3.4c-11.5,12-35,19-36.7,19.5
		c-29.2,8.5-59.1-3.6-66.2-6.7c-7.8-3.4-38-17-53.6-49.6c-6.7-14-9.9-30.7-9.8-41.9c0-2.3,0.6-11,1.7-21.4
		C140.7,126.4,141.1,123.1,141.4,120.9z"/>
	<path class="st2" d="M192.1,103.1c-0.6-0.4-6.8,6.8-10.5,14c-5.6,11-5.1,21.6-4.8,27.9c1.3,23.9,14.6,40.5,17,43.4
		c18.7,22.6,44.4,26.3,50.7,27c6.9,0.8,28,3.2,46.9-9.8c15.4-10.6,23.5-27.5,22.8-28.1c-0.3-0.2-2,1.8-4.6,4.2c0,0-10.8,9.9-26,15.1
		c-26.4,8.9-57.9-11-59.3-11.9c-6.9-4.5-23.4-15.6-31-37.5c0,0-3.9-12.7-2.7-35c0.2-4.1,0.8-6.6,0.8-6.6
		C191.9,103.9,192.3,103.2,192.1,103.1z"/>
	<path class="st3" d="M233.1,92.9c-0.9,1-2,2.3-3.2,4.1c-3.7,5.6-4.9,10.9-5.2,12.5c-1.2,5.9-0.4,10.6,0,13.1
		c1.7,9.7,7.6,21.9,19.3,30.4c0.8,0.6,14.8,10.5,33.5,9.2c3.8-0.3,9.5-0.7,15.7-4.2c0,0,5.5-3.1,11.2-10.7c0.5-0.6,1.5-2.1,1.3-2.4
		c-0.3-0.3-2,0.8-2.4,1.1c-3.9,2.6-10.5,3.9-13.8,4.6c-7.8,1.5-18.4,0-27.6-4.4c-10.1-4.8-15.8-11.6-18.7-15.1
		c-3.2-3.9-6.9-8.4-8.8-15.4c-1.8-6.6-1.4-13.3-1.3-15.9c0.1-1.6,0.2-3.3,0.5-4.9c0.2-1.2,0.5-2.6,0.2-2.7
		C233.5,92.3,233.3,92.7,233.1,92.9z"/>
</g>
<g>
	<path class="st2" d="M214.7,309.3h-10.2c-0.6,0-1.1,0.5-1.2,1l-3.6,16.7l-3.6,16.8c-0.1,0.6-0.7,1-1.2,1h-7.2
		c-7.1,0-6.3-4.9-4.9-11.7v-0.2l0.2-0.9c0-0.1,0-0.1,0-0.2l0.3-1.7l0.3-1.9c0.1-0.6,0.3-1.4,0.4-1.9l1.6-8l1.6-8
		c0.1-0.6-0.3-1-0.8-1H176c-0.6,0-1.1,0.5-1.2,1l-2.3,10.7l-2.3,10.7l0,0l-0.2,1c-2.6,11.8-1.9,23.1,12.2,23.5c0.2,0,0.4,0,0.4,0
		h22.1c0.6,0,1.1-0.5,1.2-1l4.8-22.4l4.8-22.4C215.6,309.8,215.2,309.3,214.7,309.3L214.7,309.3z M255.4,345c0.6,0,0.9,0.5,0.8,1
		l-1,4.8 M254.2,355.6l1-4.8L254.2,355.6L254.2,355.6z M253,356.7L253,356.7c-3,0-12,0.1-18.8,0.1C242.4,356.8,253,356.7,253,356.7z
		 M228.1,338.7c0-0.5,0.6-1.4,1.2-1.4H228C227.4,343,228.1,338.7,228.1,338.7z"/>
	<path class="st2" d="M235.1,356.8c-0.1,0-0.1,0-0.2,0C235,356.8,235,356.8,235.1,356.8z M255.4,345c0.6,0,0.9,0.5,0.8,1l-1,4.8
		l-0.2,0.8 M239.9,356.7L239.9,356.7L239.9,356.7z M237.4,356.8h-0.1H237.4z M236.7,356.8c-0.1,0-0.2,0-0.2,0
		S236.6,356.8,236.7,356.8z M235.9,356.8h-0.2H235.9z M237.3,356.8h-0.6H237.3z M253,356.7c-2.2,0-7.6,0.1-13,0.1
		C245.3,356.7,250.8,356.7,253,356.7z M254.2,355.6l0.8-4.1L254.2,355.6L254.2,355.6L254.2,355.6z M236.4,356.8h-0.5H236.4z
		 M234.9,356.8h-0.7H234.9z M235.7,356.8h-0.6H235.7z M86.5,338.8l1.6-7l-1.8,8l-1.7,8.2l1.5-7.2C86.2,340.3,86.4,339.4,86.5,338.8
		L86.5,338.8z M105.5,309.2H94.3c-0.6,0-1.1,0.5-1.3,1l-1.1,4.7l-1.1,4.7c-0.1,0.6,0.2,1,0.8,1H103c0.6,0,1.1-0.5,1.2-1l1-4.7l1-4.7
		l0,0C106.4,309.7,106,309.2,105.5,309.2L105.5,309.2z M103,324.8L103,324.8L99.7,340L103,324.8L103,324.8z M70.5,375.2
		c0,0,5.6,0.1,9.2,0.1C77,375.2,72.5,375.2,70.5,375.2L70.5,375.2L70.5,375.2z M89.7,324.8l-1.6,7L89.7,324.8z"/>
	<path class="st2" d="M102.2,323.8H90.9c-0.6,0-1.1,0.5-1.3,1l-1.6,7l-1.6,7c-0.1,0.6-0.3,1.5-0.4,2l-1.5,7.2l-1.5,7.2
		c-0.1,0.6-0.4,1.4-0.5,2c0,0-2.1,6.3-5.7,6.2c-0.1,0-0.3,0-0.4,0c-1.7,0-3.1-0.1-3.1-0.1l0,0c-0.6,0-1.1,0.4-1.3,1l-1.2,4.9
		l-1.2,4.9c-0.1,0.6,0.2,1,0.8,1c2,0,6.5,0.1,9.2,0.1c8.9,0,13.5-4.9,16.5-19l3.5-16.2l3.3-15.2
		C103.1,324.2,102.8,323.8,102.2,323.8L102.2,323.8z M262.6,356.2c-0.6,0-0.9-0.5-0.8-1l8.5-39.8 M274.4,355.2l3.4-17L274.4,355.2z"
		/>
	<path class="st2" d="M310,320l-0.5-1.9l-0.5-2l-0.2-1c-0.9-3.6-3.6-5.6-9.4-5.6h-9.1h-8.4h-9.4c-0.6,0-1.1,0.5-1.2,1l-0.4,2
		l-0.5,2.3l-0.1,0.7l-4.2,19.9l-4,18.9c-0.1,0.6-0.2,1.2-0.1,1.5s1.2,0.5,1.7,0.5h8.5c0.6,0,1.3-0.1,1.6-0.2
		c0.3-0.1,0.8-1.2,0.9-1.8l1.5-7.5l1.5-7.5l0,0l0.2-1l1.8-8.6l1.6-7.6c0.1-0.6,0.7-1,1.2-1h26.8C309.8,321,310.2,320.6,310,320
		L310,320z"/>
	<path class="st2" d="M344.5,302.5c-0.6,0-1.5,0-2.1,0h-8.6c-0.6,0-1.3,0.4-1.6,0.9l-18.9,27.8c-0.3,0.5-0.7,0.4-0.8-0.2l-1.4-6.1
		c-0.1-0.6-0.7-1-1.3-1h-12.2c-0.6,0-0.9,0.4-0.7,1l5.5,19.1c0.2,0.5,0.2,1.4,0,2l-2.4,9.3c-0.1,0.5,0.2,1,0.8,1h12
		c0.6,0,1.1-0.4,1.3-1l2.4-9.3c0.1-0.5,0.5-1.4,0.9-1.8l30.8-40.8c0.3-0.5,0.2-0.8-0.4-0.8L344.5,302.5L344.5,302.5z M247.8,326.5
		L247.8,326.5c-0.1,0.6-0.6,1.1-1.2,1.1h-15.4c-0.5,0-0.8-0.4-0.7-0.8l0,0l0,0c0,0,0,0,0-0.1c0,0,0-0.1,0.1-0.3
		c1.5-3.9,4.5-6.5,10.1-6.5C246.9,319.9,248.2,323,247.8,326.5L247.8,326.5z M243.2,308.6c-19.8,0-24.5,12-27.1,24.2
		c-2.6,12.4-2.4,23.9,18.1,23.9h0.7c0.1,0,0.1,0,0.2,0h1.3c0.1,0,0.2,0,0.2,0h0.6h0.1c0.8,0,1.6,0,2.5,0l0,0c5.4,0,10.8-0.1,13-0.1
		c0.6,0,1.1-0.5,1.2-1l0.8-4.1l0.2-0.8l1-4.8c0.1-0.6-0.3-1-0.8-1h-18.4c-7.3,0-9.5-1.9-8.7-7.7h29.5l0,0l0,0c0.5,0,0.9-0.3,1.1-0.8
		c0-0.1,0.1-0.2,0.1-0.3l0,0C263.2,319.8,262,308.6,243.2,308.6L243.2,308.6z M149.6,326.4l-0.3,1l0,0l-2.2,7.9l-2.2,7.9
		c-0.2,0.5-0.7,1-1.3,1h-11.8c-8.9,0-11.1-7-8.9-17.3c2.2-10.5,6.4-17.1,15.2-17.8C150.1,308.2,152.5,316.6,149.6,326.4L149.6,326.4
		z M157.6,343.5c0,0,5.6-13.5,6.8-21.3c1.7-10.4-3.5-25.5-23.7-25.5c-20,0-28.8,14.4-32.1,30.1c-3.3,15.8,1,29.7,21,29.6l15.7-0.1
		l14.7-0.1c0.6,0,1.1-0.5,1.3-1l2.6-9.8c0.1-0.5-0.2-1-0.8-1h-2.5h-2.5c-0.5,0-0.8-0.3-0.7-0.7C157.6,343.7,157.6,343.6,157.6,343.5
		L157.6,343.5L157.6,343.5L157.6,343.5z"/>
</g>
</svg>
