<svg version="1.1" id="Lag_1" xmlns:rdf="http://www.w3.org/1999/02/22-rdf-syntax-ns#"
	 xmlns="http://www.w3.org/2000/svg" xmlns:xlink="http://www.w3.org/1999/xlink" x="0px" y="0px" viewBox="0 0 500 500"
	 style="enable-background:new 0 0 500 500;" xml:space="preserve">
<style type="text/css">
	.st0{fill:none;}
	.st1{enable-background:new    ;}
	.st2{fill:#FFFFFF;}
	.st3{fill:none;stroke:#FFFFFF;stroke-width:4;stroke-miterlimit:10;}
</style>
<rect x="68.7" y="-77" class="st0" width="503.4" height="577"/>
<g class="st1">
	<path class="st2" d="M451.5,204.1v-45.5c0-48.8-22.1-80.6-40.9-98.8c-26.7-25.4-64.3-40.3-100.7-38.4H83.6v180.7l364,274.3
		c2.6,1.3,3.9,5.2,2.6,7.8c-1.3,3.3-3.9,5.2-7.1,5.2h-65c-1.3,0-3.3-0.7-4.5-1.3l-289.9-219V299l234.6,177.4
		c2.6,1.3,3.9,5.2,2.6,7.8c-0.7,3.3-3.9,5.2-7.2,5.2H250c-1.9,0-3.3-0.7-4.5-1.3L83.6,366v116.3c0,3.9-3.3,7.2-7.8,7.2
		c-3.9,0-7.1-3.3-7.1-7.2V351c0-2.6,1.3-5.2,3.9-6.5s5.9-0.7,7.8,0.6L252,474.5h39.6L71.9,308.8c-2-1.3-3.3-3.3-3.3-5.8v-48.1
		c0-3.3,1.3-5.9,3.9-7.2s5.9-0.6,7.8,0.7l300.3,226.2H421L72,212c-2-1.3-3.3-3.2-3.3-5.8V13.7c0-3.9,3.3-7.1,7.1-7.1
		c0.6,0,1.3,0,1.3,0c0.7,0,1.3,0,1.3,0h231.4c39.6-1.3,81.2,14.3,111.1,42.9c20.8,20.1,45.5,55.2,45.5,109.2v45.5
		c0,87.8-67,142.3-133.2,150.8h-0.7c-3.9,0-7.1-2.6-7.8-6.5c0-3.9,2.6-7.8,6.5-8.5C391.1,332.8,451.5,283.4,451.5,204.1z"/>
</g>
<g class="st1">
	<path class="st3" d="M451.5,204.1v-45.5c0-48.8-22.1-80.6-40.9-98.8c-26.7-25.4-64.3-40.3-100.7-38.4H83.6v180.7l364,274.3
		c2.6,1.3,3.9,5.2,2.6,7.8c-1.3,3.3-3.9,5.2-7.1,5.2h-65c-1.3,0-3.3-0.7-4.5-1.3l-289.9-219V299l234.6,177.4
		c2.6,1.3,3.9,5.2,2.6,7.8c-0.7,3.3-3.9,5.2-7.2,5.2H250c-1.9,0-3.3-0.7-4.5-1.3L83.6,366v116.3c0,3.9-3.3,7.2-7.8,7.2
		c-3.9,0-7.1-3.3-7.1-7.2V351c0-2.6,1.3-5.2,3.9-6.5s5.9-0.7,7.8,0.6L252,474.5h39.6L71.9,308.8c-2-1.3-3.3-3.3-3.3-5.8v-48.1
		c0-3.3,1.3-5.9,3.9-7.2s5.9-0.6,7.8,0.7l300.3,226.2H421L72,212c-2-1.3-3.3-3.2-3.3-5.8V13.7c0-3.9,3.3-7.1,7.1-7.1
		c0.6,0,1.3,0,1.3,0c0.7,0,1.3,0,1.3,0h231.4c39.6-1.3,81.2,14.3,111.1,42.9c20.8,20.1,45.5,55.2,45.5,109.2v45.5
		c0,87.8-67,142.3-133.2,150.8h-0.7c-3.9,0-7.1-2.6-7.8-6.5c0-3.9,2.6-7.8,6.5-8.5C391.1,332.8,451.5,283.4,451.5,204.1z"/>
</g>
</svg>
