<?xml version="1.0" encoding="utf-8"?>
<!-- Generator: Adobe Illustrator 23.0.1, SVG Export Plug-In . SVG Version: 6.00 Build 0)  -->
<svg version="1.1" id="Layer_1" xmlns="http://www.w3.org/2000/svg" xmlns:xlink="http://www.w3.org/1999/xlink" x="0px" y="0px"
	 viewBox="0 0 420 499" style="enable-background:new 0 0 420 499;" xml:space="preserve">
<style type="text/css">
	.st0{fill:#999999;}
	.st1{fill:#FFFFFF;}
	.st2{fill:#787878;}
</style>
<path class="st0" d="M104.6,352h-16c-0.6-26.9-2.1-52.3-4.7-76.1h-0.1L59.5,352H47.3l-24.2-76.1H23c-1.8,22.8-2.9,48.2-3.4,76.1H5.1
	c0.9-33.9,3.3-65.7,7.1-95.4h19.7l23,70.1H55l23.2-70.1h18.9C101.4,291.4,103.8,323.2,104.6,352 M173.8,281.6
	c-6.5,35.3-15.1,60.9-25.7,76.9c-8.3,12.3-17.4,18.5-27.3,18.5c-2.6,0-5.9-0.8-9.7-2.4v-8.5c1.9,0.3,4.1,0.4,6.6,0.4
	c4.6,0,8.3-1.3,11.2-3.8c3.4-3.1,5.1-6.6,5.1-10.5c0-2.6-1.3-8.1-4-16.3l-17.5-54.4h15.7l12.6,40.7c2.8,9.3,4,15.7,3.5,19.4
	c6.9-18.4,11.7-38.4,14.4-60.1L173.8,281.6L173.8,281.6L173.8,281.6z"/>
<path class="st1" d="M386.4,352H341v-95.4h15.3v83.7h30.1V352L386.4,352z M329.2,354.3l-17.5-8.7c1.6-1.3,3-2.7,4.4-4.3
	c7.5-8.8,11.2-21.7,11.2-38.9c0-31.6-12.4-47.4-37.2-47.4c-12.2,0-21.6,4-28.4,12c-7.5,8.8-11.2,21.7-11.2,38.7
	c0,16.8,3.3,29.1,9.9,36.9c6,7.1,15.1,10.6,27.3,10.6c4.5,0,8.7-0.6,12.5-1.7l22.8,13.3L329.2,354.3z M272.3,332.9
	c-3.9-6.2-5.8-16.2-5.8-30c0-24,7.3-36.1,21.9-36.1c7.6,0,13.2,2.9,16.8,8.6c3.8,6.2,5.8,16.1,5.8,29.7c0,24.2-7.3,36.3-21.9,36.3
	C281.5,341.5,275.9,338.7,272.3,332.9 M243.8,325.6c0,8.1-3,14.7-8.9,19.9c-5.9,5.2-13.9,7.8-23.9,7.8c-9.3,0-18.4-3-27.1-8.9
	l4.1-8.2c7.5,3.8,14.4,5.6,20.5,5.6c5.8,0,10.2-1.3,13.5-3.8s5.2-6.1,5.2-10.6c0-5.7-4-10.5-11.2-14.6c-6.7-3.7-20.1-11.4-20.1-11.4
	c-7.2-5.3-10.9-10.9-10.9-20.3c0-7.7,2.7-14,8.1-18.7c5.4-4.8,12.4-7.1,21-7.1c8.8,0,16.9,2.4,24.2,7.1l-3.7,8.2
	c-6.2-2.6-12.3-4-18.4-4c-4.9,0-8.7,1.2-11.3,3.5c-2.6,2.4-4.3,5.4-4.3,9.1c0,5.6,4,10.5,11.5,14.7c6.8,3.7,20.5,11.5,20.5,11.5
	C240.1,310.7,243.8,316.3,243.8,325.6"/>
<path class="st2" d="M405.6,224.6c-9.2-0.2-16.4,0.7-22.4,3.2c-1.7,0.7-4.5,0.7-4.7,2.9c0.9,0.9,1,2.4,1.9,3.7c1.4,2.3,3.8,5.4,6,7
	c2.4,1.8,4.8,3.7,7.4,5.3c4.5,2.8,9.6,4.4,13.9,7.1c2.5,1.6,5.1,3.7,7.6,5.4c1.3,0.9,2.1,2.4,3.7,3v-0.4c-0.8-1-1-2.5-1.8-3.7
	l-3.5-3.4c-3.4-4.5-7.5-8.4-12-11.6c-3.7-2.5-11.8-6-13.3-10.2l-0.2-0.2c2.5-0.2,5.5-1.2,8-1.9c3.9-1,7.5-0.8,11.5-1.8
	c1.8-0.5,3.7-1,5.5-1.6v-1c-2.1-2.1-3.6-4.8-5.8-6.8c-5.9-5.1-12.3-10-19-14.2c-3.6-2.3-8.2-3.8-12-5.8c-1.4-0.7-3.7-1-4.5-2.2
	c-2.1-2.5-3.2-5.9-4.7-8.9c-3.3-6.3-6.6-13.4-9.4-20.1c-2.1-4.5-3.4-9-5.9-13.1c-11.9-19.6-24.8-31.5-44.6-43.1
	c-4.3-2.4-9.3-3.5-14.7-4.7l-8.7-0.4c-1.8-0.8-3.7-3-5.3-4c-6.6-4.2-23.5-13.1-28.4-1.3c-3.1,7.5,4.6,14.9,7.3,18.7
	c2,2.6,4.5,5.6,5.9,8.6c0.8,2,1,4,1.8,6.1c1.8,5.1,3.6,10.7,6,15.5c1.3,2.4,2.6,5,4.3,7.1c0.9,1.3,2.5,1.8,2.9,3.9
	c-1.6,2.3-1.7,5.8-2.7,8.6c-4.2,13-2.5,29.2,3.4,38.7c1.8,2.9,6.2,9.2,12.1,6.8c5.2-2.1,4-8.6,5.5-14.4c0.4-1.4,0.1-2.3,0.8-3.2v0.2
	c1.6,3.2,3.2,6.3,4.7,9.6c3.6,5.6,9.8,11.5,15,15.4c2.8,2.1,5,5.7,8.4,6.9v-0.4h-0.2c-0.7-1-1.7-1.5-2.6-2.3c-2.1-2.1-4.4-4.6-6-6.9
	c-4.8-6.5-9.1-13.6-12.9-21c-1.9-3.6-3.5-7.5-5-11.1c-0.7-1.4-0.7-3.5-1.9-4.2c-1.7,2.5-4.3,4.7-5.5,7.8c-2.2,5-2.4,11.1-3.2,17.4
	l-0.4,0.2c-3.7-0.9-5-4.7-6.3-8c-3.4-8.2-4-21.3-1-30.8c0.8-2.4,4.3-10,2.9-12.3c-0.7-2.2-3-3.5-4.3-5.2c-1.5-2.2-3.1-5-4.2-7.4
	c-2.8-6.4-4.2-13.6-7.1-20.1c-1.4-3-3.8-6.1-5.8-8.9c-2.2-3.1-4.6-5.3-6.3-9c-0.6-1.3-1.4-3.4-0.4-4.7c0.2-0.9,0.7-1.3,1.6-1.5
	c1.5-1.3,5.8,0.4,7.3,1c4.3,1.7,7.9,3.4,11.4,5.8c1.6,1.2,3.4,3.4,5.4,3.9h2.4c3.7,0.8,7.8,0.2,11.3,1.3c6.1,2,11.6,4.8,16.6,8
	c15.1,9.6,27.6,23.2,36,39.4c1.4,2.6,2,5.1,3.2,7.8c2.4,5.7,5.4,11.4,7.8,16.9c2.4,5.4,4.7,10.9,8.2,15.5c1.7,2.4,8.7,3.7,11.8,5
	c2.3,1,5.9,2,8,3.2c3.9,2.4,7.8,5.2,11.5,7.9C399.5,219.4,405.2,222.3,405.6,224.6 M288,124.4c-1.6,0-3.2,0.2-4.7,0.6v0.2h0.2
	c0.9,1.8,2.5,3.1,3.7,4.7c0.9,1.8,1.7,3.7,2.6,5.5l0.2-0.2c1.6-1.2,2.4-3,2.4-5.8c-0.7-0.8-0.8-1.6-1.4-2.4
	C290.4,125.9,288.9,125.4,288,124.4"/>
</svg>
