<svg version="1.1" id="Layer_1" xmlns="http://www.w3.org/2000/svg" xmlns:xlink="http://www.w3.org/1999/xlink" x="0px" y="0px"
	 viewBox="0 0 512 512" style="enable-background:new 0 0 512 512;" xml:space="preserve">
<style type="text/css">
	.st0{fill:#FFFFFF;}
</style>
<g>
	<path class="st0" d="M466.3,40c3.2,0,5.7,2.6,5.7,5.7v418.6c0,3.2-2.6,5.7-5.7,5.7H47.7c-3.2,0-5.7-2.6-5.7-5.7V45.7
		c0-3.2,2.6-5.7,5.7-5.7H466.3 M466.3,30H47.7C39,30,32,37,32,45.7v418.6c0,8.7,7,15.7,15.7,15.7h418.6c8.7,0,15.7-7,15.7-15.7V45.7
		C482,37,475,30,466.3,30L466.3,30z"/>
</g>
<g>
	<g>
		<path class="st0" d="M142.7,141.3c12.6-2.2,29.1-4,50.3-4c25.6,0,44.6,5.9,56.7,16.8c11,9.7,17.8,24.3,17.8,42.3
			c0,18.3-5.5,32.8-15.7,43.3c-13.9,14.8-36.3,22.1-61.8,22.1c-7.9,0-15.1-0.3-21.1-1.9V341h-26.1V141.3z M168.8,238.6
			c5.8,1.7,13.1,2.3,21.7,2.3c31.7,0,50.8-15.5,50.8-43.2c0-26.8-19.1-39.9-47.7-39.9c-11.5,0-20.1,1.1-24.7,2.1V238.6z"/>
	</g>
</g>
<g>
	<g>
		<path class="st0" d="M277.2,314.1c8,5,21.8,10.3,35,10.3c19.3,0,28.2-9.5,28.2-21.6c0-12.7-7.7-19.3-27-26.6
			c-26.2-9.5-38.6-23.8-38.6-41.1c0-23.4,19-42.5,50.2-42.5c14.8,0,27.5,4,35.5,8.9l-6.6,19.2c-5.6-3.5-16.2-8.5-29.8-8.5
			c-15.6,0-24,9-24,19.9c0,12,8.5,17.4,27.5,24.7c25,9.3,38,21.9,38.1,43.6c0,25.7-20,43.7-54.3,43.7c-15.9,0-30.6-4.1-40.8-10.1
			L277.2,314.1z"/>
	</g>
</g>
</svg>
