<?xml version="1.0" encoding="utf-8"?>
<!-- Generator: Adobe Illustrator 23.0.1, SVG Export Plug-In . SVG Version: 6.00 Build 0)  -->
<svg version="1.1" id="Layer_1" xmlns="http://www.w3.org/2000/svg" xmlns:xlink="http://www.w3.org/1999/xlink" x="0px" y="0px"
	 viewBox="0 0 420 499" style="enable-background:new 0 0 420 499;" xml:space="preserve">
<style type="text/css">
	.st0{fill:#787878;}
	.st1{fill:#FFFFFF;}
</style>
<path id="outer" class="st0" d="M3.7,258.5c0,60,92.4,108.5,206.4,108.5l0,0c114,0,206.4-48.6,206.4-108.5l0,0
	c0-60-92.4-108.5-206.4-108.5l0,0C96.2,150,3.7,198.7,3.7,258.5"/>
<path id="inner" class="st0" d="M11.9,259.7c0,56.4,88.9,102.1,198.4,102.1l0,0c109.5,0,198.4-45.8,198.4-102.3l0,0
	c0-56.4-88.9-102.3-198.4-102.3l0,0C100.7,157.4,11.9,203.2,11.9,259.7"/>
<path id="p_1_" class="st1" d="M300.9,271c9,0,15.8-1.6,20-4.9c4.1-3.3,7.1-8.9,8.6-16.8c1.4-7.4,0.9-12.5-1.6-15.1
	c-2.5-2.9-8-4.3-16.3-4.3h-14.4l-8,41C289.3,271,300.9,271,300.9,271z M253.8,321.7c-0.6,0-1.3-0.3-1.8-0.9
	c-0.5-0.5-0.6-1.3-0.5-1.9L272.7,210c0.3-1,1.1-1.8,2.1-1.8h45.6c14.4,0,25,3.9,31.6,11.6c6.8,7.8,8.8,18.5,6.3,32
	c-1,5.5-2.9,10.6-5.5,15.3c-2.5,4.6-6,8.9-10.1,12.6c-4.9,4.6-10.5,8-16.6,10c-6,2-13.6,2.9-22.9,2.9h-18.5l-5.3,27.1
	c-0.3,1-1.1,1.8-2.1,1.8L253.8,321.7L253.8,321.7z"/>
<path id="h" class="st1" d="M227.8,292.7c-0.6,0-1.3-0.3-1.8-0.9s-0.6-1.3-0.5-1.9l9.4-48.1c0.9-4.5,0.6-7.9-0.6-9.3
	c-0.9-0.9-3.1-2.3-10.1-2.3h-17l-11.7,60.5c-0.3,1-1.1,1.8-2.3,1.8h-23.5c-0.6,0-1.3-0.3-1.7-0.9c-0.5-0.6-0.6-1.3-0.5-1.9
	l21.1-108.9c0.2-1,1.1-1.8,2.1-1.8h23.5c0.6,0,1.3,0.3,1.7,0.9c0.5,0.5,0.6,1.3,0.5,1.9l-5.1,26.3h18.3c13.9,0,23.3,2.5,28.9,7.5
	c5.6,5.1,7.4,13.4,5.1,24.4l-9.9,50.6c-0.1,1-1.1,1.8-2.1,1.8h-23.8V292.7L227.8,292.7z"/>
<path id="p" class="st1" d="M115.9,271c9,0,15.8-1.6,20-4.9c4.1-3.3,7.1-8.9,8.6-16.8c1.4-7.4,0.9-12.5-1.6-15.1
	c-2.5-2.9-8-4.3-16.2-4.3h-14.4l-8,41C104.3,271,115.9,271,115.9,271z M68.8,321.7c-0.6,0-1.3-0.3-1.8-0.9c-0.5-0.5-0.6-1.3-0.5-1.9
	L87.6,210c0.3-1,1.1-1.8,2.1-1.8h45.8c14.4,0,25,3.9,31.6,11.6c6.8,7.8,8.8,18.5,6.3,32c-1,5.5-2.9,10.6-5.5,15.3
	c-2.5,4.6-6,8.9-10.1,12.6c-4.9,4.6-10.5,8-16.6,10c-6,2-13.6,2.9-22.9,2.9H99.8l-5.3,27.1c-0.2,1-1.1,1.8-2.1,1.8L68.8,321.7
	L68.8,321.7z"/>
</svg>
