<svg version="1.1" id="Layer_1" xmlns="http://www.w3.org/2000/svg" xmlns:xlink="http://www.w3.org/1999/xlink" x="0px" y="0px"
	 viewBox="0 0 512 512" style="enable-background:new 0 0 512 512;" xml:space="preserve">
<style type="text/css">
	.st0{fill:#FFFFFF;}
</style>
<g>
	<path class="st0" d="M466.3,40c3.2,0,5.7,2.6,5.7,5.7v418.6c0,3.2-2.6,5.7-5.7,5.7H47.7c-3.2,0-5.7-2.6-5.7-5.7V45.7
		c0-3.2,2.6-5.7,5.7-5.7H466.3 M466.3,30H47.7C39,30,32,37,32,45.7v418.6c0,8.7,7,15.7,15.7,15.7h418.6c8.7,0,15.7-7,15.7-15.7V45.7
		C482,37,475,30,466.3,30L466.3,30z"/>
</g>
<g>
	<g>
		<path class="st0" d="M146.7,141.3c12.6-2.2,29.1-4,50.3-4c25.6,0,44.6,5.9,56.7,16.8c11,9.7,17.8,24.3,17.8,42.3
			c0,18.3-5.5,32.8-15.7,43.3c-13.9,14.8-36.3,22.1-61.8,22.1c-7.9,0-15.1-0.3-21.1-1.9V341h-26.1V141.3z M172.8,238.6
			c5.8,1.7,13.1,2.3,21.7,2.3c31.7,0,50.8-15.5,50.8-43.2c0-26.8-19.1-39.9-47.7-39.9c-11.5,0-20.1,1.1-24.7,2.1V238.6z"/>
	</g>
</g>
<g>
	<g>
		<path class="st0" d="M295.9,241.1c0-17.1-0.4-31.7-1.2-45.2h23.1l1,28.5h0.9c6.8-19.5,22.8-31.8,40.4-31.8c2.9,0,4.9,0.2,7.3,0.7
			v24.8c-2.7-0.6-5.4-0.8-9-0.8c-18.6,0-31.7,14-35.3,33.8c-0.7,3.7-1.1,8-1.1,12.3V341h-26.3V241.1z"/>
	</g>
</g>
</svg>
