<svg version="1.1" id="Lag_1" xmlns:rdf="http://www.w3.org/1999/02/22-rdf-syntax-ns#"
	 xmlns="http://www.w3.org/2000/svg" xmlns:xlink="http://www.w3.org/1999/xlink" x="0px" y="0px" viewBox="0 0 500 500"
	 style="enable-background:new 0 0 500 500;" xml:space="preserve">
<style type="text/css">
	.st0{fill:#FFFFFF;}
	.st1{fill-rule:evenodd;clip-rule:evenodd;fill:#787878;}
</style>
<g transform="matrix(1.0755 0 0 1.0755 -3.5103 -1.6684)">
	<g>
		<circle class="st0" cx="236.7" cy="234.1" r="228.7"/>
		<path class="st0" d="M236.7,37.3c51.3,0,98,19.7,133.1,51.9c-17.1-0.5-34.2,9.7-35,33.1c-1.5,47.2,56.5,57.3,25.3,152.3
			l-25.8,78.6l-70.4-207.2c-1.1-3.2,0.2-5,4.1-5h19.9c1,0,1.9-0.9,1.9-2v-11.8c0-1.1-0.9-2-1.9-2c-37.7,1.7-75.1,1.7-112.3,0
			c-1.1,0-1.9,0.9-1.9,2v11.8c0,1.1,0.9,2,1.9,2h20c4.4,0,5.7,1.5,6.7,4.3l28.9,79l-43.4,131.2l-71.4-210.4
			c-0.9-2.7,0.2-4.1,2.8-4.1h22.7c1,0,1.9-0.9,1.9-2v-11.8c0-1.1-0.9-2-1.9-2c-23.9,1.3-47.9,1.5-70.3,1.8
			C106.7,73,167.5,37.3,236.7,37.3L236.7,37.3L236.7,37.3z M409.7,140.4c15.2,27.9,23.7,59.7,23.7,93.7
			c0,74.4-41.3,139.2-102.3,172.6l61.3-173.8C401.9,206,410.8,169.6,409.7,140.4L409.7,140.4L409.7,140.4z M302.5,419.4
			c-20.6,7.3-42.7,11.3-65.8,11.3c-19.9,0-39.1-3-57.2-8.5l60.6-173.7L302.5,419.4L302.5,419.4L302.5,419.4z M152.5,411.9
			C86,380.3,39.9,312.5,39.9,234.1c0-29.1,6.3-56.7,17.7-81.6L152.5,411.9L152.5,411.9L152.5,411.9z M236.7,18.9
			c118.8,0,215.1,96.3,215.1,215.1s-96.3,215.1-215.1,215.1S21.5,352.8,21.5,234.1S117.9,18.9,236.7,18.9z M236.7,5.2
			c126.3,0,228.7,102.4,228.7,228.8S362.9,462.8,236.7,462.8S7.9,360.3,7.9,234.1S110.3,5.2,236.7,5.2L236.7,5.2z"/>
	</g>
	<g>
		<circle class="st0" cx="236.7" cy="234.1" r="228.7"/>
		<path class="st1" d="M236.7,37.3c51.3,0,98,19.7,133.1,51.9c-17.1-0.5-34.2,9.7-35,33.1c-1.5,47.2,56.5,57.3,25.3,152.3
			l-25.8,78.6l-70.4-207.2c-1.1-3.2,0.2-5,4.1-5h19.9c1,0,1.9-0.9,1.9-2v-11.8c0-1.1-0.9-2-1.9-2c-37.7,1.7-75.1,1.7-112.3,0
			c-1.1,0-1.9,0.9-1.9,2v11.8c0,1.1,0.9,2,1.9,2h20c4.4,0,5.7,1.5,6.7,4.3l28.9,79l-43.4,131.2l-71.4-210.4
			c-0.9-2.7,0.2-4.1,2.8-4.1h22.7c1,0,1.9-0.9,1.9-2v-11.8c0-1.1-0.9-2-1.9-2c-23.9,1.3-47.9,1.5-70.3,1.8
			C106.7,73,167.5,37.3,236.7,37.3L236.7,37.3L236.7,37.3z M409.7,140.4c15.2,27.9,23.7,59.7,23.7,93.7
			c0,74.4-41.3,139.2-102.3,172.6l61.3-173.8C401.9,206,410.8,169.6,409.7,140.4L409.7,140.4L409.7,140.4z M302.5,419.4
			c-20.6,7.3-42.7,11.3-65.8,11.3c-19.9,0-39.1-3-57.2-8.5l60.6-173.7L302.5,419.4L302.5,419.4L302.5,419.4z M152.5,411.9
			C86,380.3,39.9,312.5,39.9,234.1c0-29.1,6.3-56.7,17.7-81.6L152.5,411.9L152.5,411.9L152.5,411.9z M236.7,18.9
			c118.8,0,215.1,96.3,215.1,215.1s-96.3,215.1-215.1,215.1S21.5,352.8,21.5,234.1S117.9,18.9,236.7,18.9z M236.7,5.2
			c126.3,0,228.7,102.4,228.7,228.8S362.9,462.8,236.7,462.8S7.9,360.3,7.9,234.1S110.3,5.2,236.7,5.2L236.7,5.2z"/>
	</g>
</g>
</svg>
