<svg version="1.1" id="Layer_1" xmlns="http://www.w3.org/2000/svg" xmlns:xlink="http://www.w3.org/1999/xlink" x="0px" y="0px"
	 viewBox="0 0 512 512" style="enable-background:new 0 0 512 512;" xml:space="preserve">
<style type="text/css">
	.st0{fill:#FFFFFF;}
</style>
<g>
	<path class="st0" d="M459.8,40c3.2,0,5.7,2.6,5.7,5.7v418.6c0,3.2-2.6,5.7-5.7,5.7H41.2c-3.2,0-5.7-2.6-5.7-5.7V45.7
		c0-3.2,2.6-5.7,5.7-5.7H459.8 M459.8,30H41.2c-8.7,0-15.7,7-15.7,15.7v418.6c0,8.7,7,15.7,15.7,15.7h418.6c8.7,0,15.7-7,15.7-15.7
		V45.7C475.5,37,468.5,30,459.8,30L459.8,30z"/>
</g>
<g>
	<g>
		<path class="st0" d="M225.7,342.9l-15.2-42.4c-4-11.5-7.6-22.4-11.6-35.6h-0.7c-3.9,13.1-7.4,25-10.7,36.3l-13.7,41.7h-32
			L181,239.6l-38-99h33.3l14.7,41.6c3.4,10.1,6.6,20.1,10.4,32.4h0.6c3.9-13.1,6.7-22.5,9.6-33l13.1-41h32.2l-38.6,99.5L259,342.9
			H225.7z"/>
	</g>
</g>
<g>
	<g>
		<path class="st0" d="M345.3,203.9V316c0,8,0.5,18.8,0.8,26.3h-18.3l-1.3-11.5h-0.6c-3.4,6.9-10.8,13.1-20.3,13.1
			c-18.8,0-29.4-20.7-29.4-50c0-34.2,14.7-50.6,30.4-50.6c8,0,13.9,3.9,17,10.6h0.4v-50H345.3z M324,282.2c0-1.9,0-4-0.3-6
			c-0.9-7.8-5.3-14.8-11.6-14.8c-10.8,0-14.7,15.4-14.7,32.8c0,19.4,5.2,32.1,14.1,32.1c4,0,9-2.1,11.7-12.1
			c0.5-1.7,0.7-3.8,0.7-6.3V282.2z"/>
	</g>
</g>
</svg>
